<svg id="圖層_1" data-name="圖層 1" xmlns="http://www.w3.org/2000/svg" viewBox="0 0 1024 1024"><defs><style>.cls-1{fill:#231815;}</style></defs><path class="cls-1" d="M211.9,157.2H367.59v311q0,36.44,11.69,48.51t46.21,12.08h89V680.63H392.13Q307,680.63,259.45,631T211.9,493.12Z"/><path class="cls-1" d="M691.89,148.06V294.55H805.65V446H691.89q0,45.64,14.38,62.89c9.58,11.5,76.5,17.26,102.07,17.26v150.7c-7.42.25-62.26.38-65.84.38a194.82,194.82,0,0,1-91.84-22.62Q607.52,632,581.45,593.27q-33-49.47-33-131.14V148.06Z"/><path class="cls-1" d="M243.33,771.78h19.84v71.15h34.65v16.64H243.33Z"/><path class="cls-1" d="M308.37,841c0-14.08,11.2-21.71,37.63-24.49-.4-5.85-3.31-9.66-10.57-9.66-5.6,0-11.2,2.36-17.68,6l-7-13c8.48-5.18,18-8.79,28.54-8.79,17.09,0,26.55,9.76,26.55,30.24v38.2H349.65l-1.43-6.84h-.49c-5.63,4.94-11.93,8.46-19.44,8.46C316.1,861.19,308.37,852.3,308.37,841Zm37.63-.88V828.48c-14.08,1.9-18.67,5.93-18.67,11,0,4.31,3,6.41,7.66,6.41C339.48,845.87,342.48,843.66,346,840.16Z"/><path class="cls-1" d="M378.76,849l28.06-40.7H382V792.75h49.56v10.59L403.46,844h29v15.53H378.76Z"/><path class="cls-1" d="M441.27,884.35l3.52-15.09a19.94,19.94,0,0,0,4.5.86c6.53,0,10-3.6,11.69-8.78l1-3.48L436.2,792.75h19.89l9.55,28.75c1.94,6,3.52,12.39,5.28,18.94h.54c1.49-6.33,3-12.67,4.64-18.94l8.11-28.75h19L480,860.29C473.63,877,466.5,885.7,450.8,885.7A30.68,30.68,0,0,1,441.27,884.35Z"/><path class="cls-1" d="M516.14,835.27v-27H507V793.51l10.23-.76L519.57,775h16.37v17.75h16v15.53h-16V835c0,7.57,3.44,10.61,8.65,10.61a19.7,19.7,0,0,0,6.36-1.27l3.12,14.38a47,47,0,0,1-14.85,2.43C522.71,861.19,516.14,850.76,516.14,835.27Z"/><path class="cls-1" d="M558.75,826.18c0-22.21,15.64-35,32.55-35s32.54,12.84,32.54,35-15.64,35-32.54,35S558.75,848.35,558.75,826.18Zm44.8,0c0-11.56-4.07-19.07-12.25-19.07S579,814.62,579,826.18s4.07,19,12.26,19S603.55,837.75,603.55,826.18Z"/><path class="cls-1" d="M633.49,826.18c0-22.21,15.64-35,32.55-35s32.55,12.84,32.55,35-15.64,35-32.55,35S633.49,848.35,633.49,826.18Zm44.81,0c0-11.56-4.07-19.07-12.26-19.07s-12.26,7.51-12.26,19.07,4.07,19,12.26,19S678.3,837.75,678.3,826.18Z"/><path class="cls-1" d="M711.05,838.8V765.21h19.8v74.4c0,4.25,2,5.6,3.58,5.6a8.57,8.57,0,0,0,2.42-.27l2.36,14.6a25.62,25.62,0,0,1-9.93,1.65C715.69,861.19,711.05,852.33,711.05,838.8Z"/><path class="cls-1" d="M743.66,851.85l8.91-12.33c6,4.58,11.64,7,17.23,7,5.9,0,8.45-2.25,8.45-5.75,0-4.4-6.63-6.4-13.5-9.09-8.2-3.17-17.69-8.61-17.69-19.65,0-12.44,10.11-20.92,25.53-20.92,10.24,0,17.86,4.14,23.55,8.46l-8.86,11.89c-4.75-3.45-9.44-5.7-14.07-5.7-5.11,0-7.63,2-7.63,5.33,0,4.26,6.26,5.89,13.18,8.41,8.46,3.13,18,7.9,18,20.11s-9.54,21.56-27.45,21.56C760.5,861.19,750.42,857.37,743.66,851.85Z"/></svg>